<?xml version="1.0" encoding="UTF-8" standalone="no"?>
<svg
   xmlns:dc="http://purl.org/dc/elements/1.1/"
   xmlns:cc="http://creativecommons.org/ns#"
   xmlns:rdf="http://www.w3.org/1999/02/22-rdf-syntax-ns#"
   xmlns:svg="http://www.w3.org/2000/svg"
   xmlns="http://www.w3.org/2000/svg"
   height="229.25"
   width="229.25"
   id="svg159"
   xml:space="preserve"
   viewBox="0 0 229.24999 229.25"
   y="0px"
   x="0px"
   version="1.1"><metadata
   id="metadata165"><rdf:RDF><cc:Work
       rdf:about=""><dc:format>image/svg+xml</dc:format><dc:type
         rdf:resource="http://purl.org/dc/dcmitype/StillImage" /><dc:title></dc:title></cc:Work></rdf:RDF></metadata><defs
   id="defs163" />
<style
   id="style2"
   type="text/css">
	.st0{fill:#FFFFFF;stroke:#000000;stroke-width:0.25;stroke-miterlimit:10;}
	.st1{fill:#2F3787;}
	.st2{display:none;}
	.st3{display:inline;fill:#BBDBE7;}
	.st4{fill:#4EAED9;}
	.st5{fill:#FFFFFF;}
</style>
<g
   transform="translate(-26.875,-31.875)"
   id="Layer_5">
</g>
<g
   transform="translate(-26.875,-31.875)"
   id="Layer_2">
	<circle
   style="fill:#ffffff;stroke:#000000;stroke-width:0.25;stroke-miterlimit:10"
   id="circle5"
   r="114.5"
   cy="146.5"
   cx="141.5"
   class="st0" />
</g>
<g
   transform="translate(-26.875,-31.875)"
   id="Layer_2_copy">
	<g
   id="g104">
		<path
   style="fill:#2f3787"
   id="path8"
   d="m 66.74,80.33 1.1,-1.16 -0.6,-0.56 c -0.67,-0.63 -1.09,-1.17 -1.29,-1.62 -0.19,-0.45 -0.21,-0.97 -0.06,-1.54 0.15,-0.58 0.5,-1.15 1.05,-1.73 0.56,-0.6 1.21,-1.09 1.92,-1.5 l 1.19,1.66 c -0.39,0.26 -0.74,0.54 -1.03,0.85 -0.29,0.3 -0.42,0.59 -0.4,0.85 0.02,0.26 0.23,0.59 0.63,0.97 l 0.56,0.53 1.48,-1.56 1.65,1.56 -1.48,1.56 6.26,5.93 -1.98,2.09 -6.26,-5.93 -1.1,1.16 z"
   class="st1" />
		<path
   style="fill:#2f3787"
   id="path10"
   d="m 72.77,71.46 -1.6,-1.88 1.88,-1.6 1.6,1.88 z m 12.67,6.04 -1.06,-1.24 c 0.08,0.7 -0.02,1.39 -0.3,2.06 -0.28,0.67 -0.69,1.24 -1.23,1.71 -0.56,0.48 -1.16,0.78 -1.81,0.91 -0.65,0.13 -1.26,0.06 -1.84,-0.21 -0.57,-0.27 -1.19,-0.8 -1.86,-1.58 l -4.47,-5.24 2.19,-1.87 3.25,3.81 c 0.99,1.17 1.64,1.84 1.95,2.04 0.3,0.19 0.63,0.28 0.97,0.25 0.34,-0.03 0.68,-0.18 1.01,-0.46 0.37,-0.32 0.62,-0.71 0.74,-1.17 0.12,-0.46 0.11,-0.89 -0.04,-1.28 -0.15,-0.4 -0.73,-1.19 -1.74,-2.38 l -2.98,-3.5 2.19,-1.87 7.07,8.29 z m -9.31,-8.9 -1.6,-1.88 1.89,-1.61 1.6,1.88 z"
   class="st1" />
		<path
   style="fill:#2f3787"
   id="path12"
   d="m 91.82,72.82 -2.39,1.61 -6.1,-9.02 2.22,-1.5 0.87,1.28 c -0.03,-0.86 0.04,-1.49 0.21,-1.89 0.17,-0.4 0.45,-0.73 0.84,-0.99 0.54,-0.37 1.17,-0.57 1.88,-0.61 l 0.67,2.58 c -0.58,0.01 -1.04,0.13 -1.39,0.37 -0.33,0.23 -0.56,0.51 -0.66,0.85 -0.11,0.34 -0.07,0.8 0.13,1.37 0.19,0.57 0.81,1.62 1.84,3.16 z"
   class="st1" />
		<path
   style="fill:#2f3787"
   id="path14"
   d="m 107.26,64.46 -0.67,-1.49 c -0.12,0.69 -0.41,1.32 -0.86,1.89 -0.45,0.57 -1,1 -1.66,1.3 -0.67,0.3 -1.33,0.42 -1.99,0.37 -0.66,-0.06 -1.23,-0.29 -1.7,-0.72 -0.48,-0.42 -0.92,-1.1 -1.34,-2.04 l -2.82,-6.29 2.63,-1.18 2.05,4.56 c 0.63,1.4 1.06,2.23 1.3,2.5 0.24,0.27 0.53,0.44 0.87,0.51 0.34,0.07 0.7,0.02 1.1,-0.16 0.45,-0.2 0.8,-0.51 1.04,-0.91 0.24,-0.4 0.35,-0.82 0.32,-1.24 -0.03,-0.42 -0.37,-1.35 -1.01,-2.77 l -1.88,-4.19 2.63,-1.18 4.46,9.94 z"
   class="st1" />
		<path
   style="fill:#2f3787"
   id="path16"
   d="m 121.46,59.77 -2.77,0.81 -1.55,-5.34 c -0.33,-1.13 -0.6,-1.84 -0.81,-2.14 -0.21,-0.3 -0.48,-0.5 -0.8,-0.6 -0.32,-0.11 -0.67,-0.1 -1.04,0 -0.48,0.14 -0.87,0.4 -1.17,0.77 -0.3,0.37 -0.46,0.8 -0.48,1.27 -0.01,0.47 0.15,1.3 0.49,2.46 l 1.38,4.74 -2.77,0.81 -3.04,-10.45 2.57,-0.75 0.45,1.54 c 0.57,-1.45 1.54,-2.37 2.93,-2.78 0.61,-0.18 1.2,-0.23 1.77,-0.16 0.57,0.07 1.03,0.24 1.39,0.51 0.36,0.27 0.65,0.6 0.88,1 0.23,0.4 0.46,1.01 0.69,1.82 z"
   class="st1" />
		<path
   style="fill:#2f3787"
   id="path18"
   d="m 122.3,56.39 2.79,-0.87 c 0.21,0.54 0.52,0.92 0.93,1.15 0.41,0.23 0.96,0.29 1.63,0.19 0.74,-0.11 1.27,-0.33 1.6,-0.66 0.22,-0.23 0.31,-0.5 0.26,-0.82 -0.03,-0.22 -0.13,-0.39 -0.28,-0.51 -0.16,-0.11 -0.5,-0.19 -1.01,-0.23 -2.38,-0.16 -3.9,-0.4 -4.58,-0.72 -0.94,-0.45 -1.49,-1.19 -1.65,-2.23 -0.14,-0.93 0.11,-1.77 0.75,-2.52 0.64,-0.75 1.73,-1.24 3.28,-1.48 1.47,-0.22 2.6,-0.15 3.39,0.22 0.79,0.37 1.39,1.01 1.8,1.9 l -2.61,0.91 c -0.18,-0.4 -0.45,-0.69 -0.8,-0.86 -0.36,-0.17 -0.83,-0.22 -1.42,-0.13 -0.75,0.11 -1.27,0.3 -1.56,0.56 -0.19,0.18 -0.27,0.39 -0.24,0.63 0.03,0.2 0.15,0.36 0.36,0.47 0.29,0.15 1.21,0.28 2.78,0.4 1.57,0.11 2.69,0.37 3.37,0.78 0.67,0.42 1.08,1.08 1.21,1.98 0.15,0.99 -0.13,1.9 -0.85,2.73 -0.72,0.83 -1.88,1.38 -3.5,1.62 -1.47,0.22 -2.67,0.1 -3.62,-0.36 -0.95,-0.46 -1.61,-1.17 -2.03,-2.15 z"
   class="st1" />
		<path
   style="fill:#2f3787"
   id="path20"
   d="m 141,54.16 2.88,0.41 c -0.34,1.06 -0.9,1.88 -1.69,2.45 -0.79,0.57 -1.77,0.87 -2.97,0.9 -1.89,0.05 -3.31,-0.53 -4.25,-1.75 -0.74,-0.97 -1.13,-2.21 -1.17,-3.72 -0.05,-1.8 0.39,-3.23 1.31,-4.27 0.92,-1.05 2.1,-1.59 3.54,-1.62 1.62,-0.04 2.91,0.46 3.88,1.51 0.96,1.05 1.45,2.67 1.47,4.88 l -7.22,0.18 c 0.04,0.85 0.29,1.51 0.75,1.98 0.46,0.46 1.02,0.69 1.68,0.67 0.45,-0.01 0.83,-0.14 1.13,-0.4 0.29,-0.27 0.52,-0.67 0.66,-1.22 z m 0.09,-2.92 c -0.04,-0.83 -0.27,-1.46 -0.69,-1.88 -0.42,-0.42 -0.92,-0.63 -1.51,-0.61 -0.63,0.02 -1.14,0.26 -1.54,0.73 -0.4,0.47 -0.58,1.1 -0.56,1.88 z"
   class="st1" />
		<path
   style="fill:#2f3787"
   id="path22"
   d="m 148.72,57.95 -2.87,-0.23 0.88,-10.85 2.67,0.21 -0.13,1.54 c 0.51,-0.69 0.96,-1.14 1.35,-1.34 0.38,-0.2 0.81,-0.28 1.27,-0.25 0.65,0.05 1.27,0.28 1.85,0.69 l -1.09,2.43 c -0.46,-0.35 -0.9,-0.55 -1.31,-0.58 -0.4,-0.03 -0.75,0.05 -1.05,0.25 -0.3,0.2 -0.55,0.58 -0.76,1.15 -0.21,0.57 -0.38,1.77 -0.53,3.62 z"
   class="st1" />
		<path
   style="fill:#2f3787"
   id="path24"
   d="m 160.47,56.15 2.73,1.01 c -0.56,0.97 -1.28,1.65 -2.16,2.04 -0.88,0.39 -1.92,0.48 -3.09,0.26 -1.86,-0.35 -3.12,-1.22 -3.79,-2.6 -0.52,-1.11 -0.64,-2.4 -0.36,-3.89 0.33,-1.77 1.06,-3.07 2.18,-3.9 1.12,-0.83 2.38,-1.11 3.8,-0.84 1.59,0.3 2.75,1.06 3.47,2.29 0.72,1.22 0.86,2.92 0.41,5.08 l -7.09,-1.34 c -0.14,0.84 -0.03,1.54 0.32,2.09 0.35,0.55 0.85,0.89 1.5,1.01 0.44,0.08 0.84,0.03 1.19,-0.15 0.33,-0.21 0.63,-0.55 0.89,-1.06 z m 0.7,-2.83 c 0.13,-0.82 0.04,-1.49 -0.28,-1.99 -0.32,-0.5 -0.77,-0.81 -1.35,-0.92 -0.62,-0.12 -1.17,0.01 -1.66,0.39 -0.49,0.38 -0.8,0.95 -0.94,1.72 z"
   class="st1" />
		<path
   style="fill:#2f3787"
   id="path26"
   d="m 169.87,62.1 5.73,-13.9 2.81,1.16 -2.55,6.17 8.21,-3.83 3.77,1.56 -7.47,3.25 2.02,10.76 -3.63,-1.5 -1.13,-8.1 -3.23,1.38 -1.73,4.2 z"
   class="st1" />
		<path
   style="fill:#2f3787"
   id="path28"
   d="m 183.18,68.03 5.25,-9.54 2.52,1.39 -5.25,9.54 z m 5.97,-10.83 1.29,-2.33 2.52,1.39 -1.29,2.33 z"
   class="st1" />
		<path
   style="fill:#2f3787"
   id="path30"
   d="m 196.08,76.21 -2.37,-1.64 3.16,-4.58 c 0.67,-0.97 1.05,-1.63 1.14,-1.98 0.09,-0.35 0.08,-0.69 -0.04,-1 -0.12,-0.31 -0.34,-0.58 -0.66,-0.8 -0.41,-0.28 -0.86,-0.42 -1.34,-0.42 -0.48,0 -0.91,0.14 -1.29,0.43 -0.38,0.29 -0.91,0.93 -1.6,1.93 l -2.8,4.06 -2.37,-1.64 6.18,-8.96 2.2,1.52 -0.91,1.32 c 1.48,-0.47 2.82,-0.3 4,0.52 0.52,0.36 0.94,0.78 1.24,1.27 0.3,0.49 0.47,0.95 0.49,1.4 0.02,0.45 -0.05,0.88 -0.22,1.32 -0.17,0.43 -0.49,0.99 -0.97,1.69 z"
   class="st1" />
		<path
   style="fill:#2f3787"
   id="path32"
   d="m 205.26,84.42 -1.97,-1.81 1.08,-1.18 c -0.75,0.16 -1.45,0.14 -2.1,-0.04 -0.65,-0.19 -1.2,-0.48 -1.66,-0.9 -0.92,-0.85 -1.37,-1.94 -1.35,-3.29 0.02,-1.35 0.65,-2.68 1.87,-4.01 1.25,-1.36 2.52,-2.1 3.8,-2.22 1.28,-0.12 2.42,0.27 3.4,1.16 0.9,0.82 1.33,1.91 1.3,3.25 l 3.66,-3.99 2.12,1.95 z m -1.83,-9.39 c -0.79,0.86 -1.24,1.58 -1.35,2.18 -0.17,0.87 0.06,1.58 0.67,2.15 0.49,0.45 1.09,0.62 1.82,0.52 0.72,-0.1 1.46,-0.57 2.22,-1.39 0.84,-0.92 1.29,-1.74 1.33,-2.45 0.04,-0.71 -0.2,-1.3 -0.72,-1.78 -0.5,-0.46 -1.11,-0.65 -1.82,-0.56 -0.7,0.1 -1.42,0.54 -2.15,1.33 z"
   class="st1" />
		<path
   style="fill:#2f3787"
   id="path34"
   d="m 213.5,88.71 1.47,2.51 c -1.04,0.39 -2.03,0.46 -2.97,0.2 -0.93,-0.26 -1.78,-0.85 -2.55,-1.76 -1.21,-1.45 -1.64,-2.92 -1.27,-4.42 0.3,-1.19 1.03,-2.26 2.19,-3.23 1.38,-1.16 2.77,-1.7 4.16,-1.63 1.39,0.07 2.55,0.65 3.47,1.76 1.04,1.24 1.45,2.57 1.23,3.97 -0.22,1.4 -1.19,2.8 -2.91,4.18 l -4.63,-5.54 c -0.64,0.56 -1,1.17 -1.08,1.81 -0.08,0.65 0.09,1.22 0.52,1.73 0.29,0.35 0.63,0.56 1.01,0.64 0.38,0.09 0.84,0.01 1.36,-0.22 z m 2.33,-1.74 c 0.63,-0.55 0.98,-1.12 1.04,-1.72 0.07,-0.59 -0.08,-1.12 -0.46,-1.57 -0.4,-0.48 -0.91,-0.73 -1.53,-0.76 -0.62,-0.02 -1.22,0.22 -1.82,0.73 z"
   class="st1" />
		<path
   style="fill:#2f3787"
   id="path36"
   d="m 215.33,97.12 -1.6,-2.39 9.04,-6.06 1.49,2.22 -1.29,0.86 c 0.86,-0.03 1.49,0.05 1.89,0.22 0.4,0.17 0.72,0.45 0.98,0.84 0.37,0.54 0.57,1.17 0.61,1.88 l -2.58,0.66 c -0.01,-0.58 -0.13,-1.04 -0.36,-1.39 -0.22,-0.34 -0.51,-0.56 -0.85,-0.67 -0.34,-0.11 -0.8,-0.07 -1.37,0.12 -0.57,0.19 -1.63,0.8 -3.17,1.83 z"
   class="st1" />
		<path
   style="fill:#2f3787"
   id="path38"
   d="m 224.14,104.15 2.6,-1.25 2.46,5.1 -2.59,1.25 z"
   class="st1" />
		<path
   style="fill:#2f3787"
   id="path40"
   d="m 235.41,112.76 0.49,1.52 0.78,-0.25 c 0.87,-0.28 1.55,-0.4 2.04,-0.35 0.49,0.05 0.95,0.27 1.38,0.69 0.43,0.41 0.77,1 1.02,1.76 0.25,0.78 0.38,1.58 0.39,2.41 l -2.03,0.25 c -0.04,-0.47 -0.12,-0.91 -0.25,-1.31 -0.13,-0.4 -0.31,-0.65 -0.55,-0.76 -0.24,-0.11 -0.63,-0.08 -1.15,0.09 l -0.73,0.24 0.66,2.05 -2.16,0.7 -0.66,-2.05 -8.2,2.66 -0.89,-2.74 8.2,-2.66 -0.49,-1.52 z"
   class="st1" />
		<path
   style="fill:#2f3787"
   id="path42"
   d="m 228.93,130.54 1.6,-0.33 c -0.65,-0.27 -1.2,-0.69 -1.66,-1.25 -0.46,-0.56 -0.76,-1.2 -0.91,-1.9 -0.15,-0.72 -0.13,-1.39 0.07,-2.03 0.2,-0.63 0.55,-1.14 1.07,-1.51 0.52,-0.37 1.28,-0.66 2.28,-0.87 l 6.75,-1.41 0.59,2.82 -4.9,1.02 c -1.5,0.31 -2.41,0.56 -2.72,0.73 -0.32,0.17 -0.54,0.42 -0.69,0.73 -0.14,0.32 -0.17,0.68 -0.08,1.11 0.1,0.48 0.32,0.89 0.67,1.21 0.35,0.32 0.73,0.52 1.15,0.58 0.42,0.06 1.39,-0.07 2.92,-0.39 l 4.5,-0.94 0.59,2.82 -10.66,2.23 z m 11.38,-8.22 2.42,-0.51 0.51,2.42 -2.42,0.51 z m 0.9,4.31 2.42,-0.51 0.51,2.43 -2.42,0.5 z"
   class="st1" />
		<path
   style="fill:#2f3787"
   id="path44"
   d="m 229.97,138.37 -0.27,-2.87 10.84,-1.01 0.25,2.67 -1.54,0.14 c 0.77,0.39 1.29,0.75 1.55,1.1 0.27,0.34 0.42,0.74 0.46,1.21 0.06,0.65 -0.06,1.3 -0.37,1.94 l -2.58,-0.65 c 0.27,-0.51 0.38,-0.98 0.34,-1.39 -0.04,-0.4 -0.18,-0.73 -0.43,-0.99 -0.25,-0.26 -0.67,-0.44 -1.26,-0.55 -0.59,-0.11 -1.81,-0.07 -3.66,0.1 z"
   class="st1" />
		<path
   style="fill:#2f3787"
   id="path46"
   d="m 229.86,155.94 1.63,0.13 c -0.55,-0.44 -0.96,-1 -1.24,-1.67 -0.28,-0.67 -0.39,-1.36 -0.33,-2.08 0.06,-0.73 0.27,-1.37 0.64,-1.92 0.37,-0.55 0.85,-0.93 1.45,-1.15 0.6,-0.21 1.41,-0.28 2.43,-0.19 l 6.87,0.56 -0.23,2.87 -4.99,-0.41 c -1.53,-0.12 -2.47,-0.15 -2.82,-0.07 -0.35,0.08 -0.64,0.25 -0.86,0.51 -0.22,0.26 -0.35,0.61 -0.39,1.04 -0.04,0.49 0.06,0.94 0.3,1.35 0.24,0.41 0.55,0.7 0.94,0.88 0.39,0.18 1.36,0.33 2.91,0.45 l 4.58,0.37 -0.23,2.87 -10.85,-0.89 z"
   class="st1" />
		<path
   style="fill:#2f3787"
   id="path48"
   d="m 227.14,170.62 0.62,-2.81 5.42,1.2 c 1.15,0.25 1.9,0.36 2.27,0.31 0.36,-0.04 0.67,-0.18 0.92,-0.41 0.25,-0.23 0.41,-0.53 0.5,-0.91 0.11,-0.49 0.07,-0.95 -0.11,-1.4 -0.18,-0.45 -0.48,-0.79 -0.88,-1.03 -0.41,-0.24 -1.21,-0.49 -2.4,-0.76 l -4.81,-1.07 0.62,-2.81 10.63,2.36 -0.58,2.61 -1.56,-0.35 c 1,1.19 1.34,2.5 1.03,3.9 -0.14,0.62 -0.38,1.16 -0.71,1.63 -0.34,0.46 -0.71,0.79 -1.12,0.98 -0.4,0.19 -0.84,0.28 -1.3,0.29 -0.46,0.01 -1.11,-0.08 -1.93,-0.26 z"
   class="st1" />
		<path
   style="fill:#2f3787"
   id="path50"
   d="m 229.7,173 -0.58,2.87 c -0.57,-0.08 -1.05,0.01 -1.46,0.27 -0.4,0.25 -0.72,0.7 -0.95,1.33 -0.25,0.7 -0.32,1.27 -0.19,1.72 0.09,0.3 0.29,0.51 0.59,0.62 0.21,0.07 0.4,0.07 0.58,-0.01 0.18,-0.09 0.41,-0.35 0.69,-0.78 1.28,-2.01 2.22,-3.23 2.83,-3.67 0.85,-0.61 1.76,-0.73 2.74,-0.38 0.89,0.32 1.5,0.94 1.85,1.86 0.35,0.92 0.26,2.12 -0.28,3.59 -0.51,1.4 -1.12,2.36 -1.82,2.87 -0.7,0.51 -1.55,0.74 -2.54,0.67 l 0.46,-2.73 c 0.44,0.04 0.82,-0.06 1.14,-0.29 0.32,-0.23 0.59,-0.62 0.79,-1.19 0.26,-0.71 0.35,-1.26 0.26,-1.64 -0.07,-0.26 -0.21,-0.43 -0.44,-0.51 -0.19,-0.07 -0.39,-0.04 -0.59,0.09 -0.27,0.18 -0.83,0.93 -1.68,2.25 -0.85,1.32 -1.62,2.18 -2.3,2.58 -0.69,0.39 -1.46,0.43 -2.32,0.12 -0.94,-0.34 -1.6,-1.03 -1.99,-2.06 -0.39,-1.03 -0.3,-2.31 0.26,-3.85 0.51,-1.39 1.19,-2.4 2.05,-3 0.88,-0.58 1.84,-0.83 2.9,-0.73 z"
   class="st1" />
		<path
   style="fill:#2f3787"
   id="path52"
   d="m 222.69,190.49 -1.74,2.33 c -0.77,-0.81 -1.22,-1.69 -1.34,-2.65 -0.13,-0.96 0.08,-1.97 0.63,-3.04 0.87,-1.68 2.05,-2.65 3.57,-2.89 1.21,-0.19 2.49,0.07 3.83,0.76 1.61,0.82 2.65,1.89 3.13,3.19 0.48,1.3 0.39,2.6 -0.27,3.88 -0.74,1.44 -1.8,2.33 -3.18,2.68 -1.38,0.34 -3.04,0 -4.99,-1.05 l 3.29,-6.42 c -0.77,-0.37 -1.47,-0.47 -2.09,-0.29 -0.63,0.18 -1.09,0.56 -1.39,1.15 -0.21,0.4 -0.27,0.8 -0.19,1.18 0.07,0.39 0.32,0.78 0.74,1.17 z m 2.51,1.48 c 0.75,0.36 1.41,0.46 1.99,0.29 0.57,-0.17 0.99,-0.51 1.26,-1.03 0.29,-0.56 0.32,-1.13 0.1,-1.7 -0.22,-0.57 -0.68,-1.04 -1.38,-1.39 z"
   class="st1" />
		<path
   style="fill:#2f3787"
   id="path54"
   d="m 215.66,195.46 1.58,-2.41 9.11,5.97 -1.47,2.24 -1.29,-0.85 c 0.36,0.78 0.54,1.39 0.53,1.83 -0.01,0.43 -0.14,0.84 -0.39,1.23 -0.36,0.55 -0.86,0.98 -1.5,1.29 l -1.61,-2.12 c 0.53,-0.23 0.91,-0.53 1.14,-0.87 0.22,-0.34 0.32,-0.68 0.28,-1.04 -0.04,-0.36 -0.25,-0.76 -0.64,-1.21 -0.4,-0.45 -1.37,-1.19 -2.92,-2.2 z"
   class="st1" />
		<path
   style="fill:#2f3787"
   id="path56"
   d="m 211.6,206.62 -2.19,1.91 c -0.58,-0.95 -0.83,-1.91 -0.75,-2.88 0.08,-0.97 0.5,-1.91 1.26,-2.83 1.2,-1.46 2.57,-2.15 4.1,-2.07 1.22,0.07 2.42,0.59 3.58,1.55 1.39,1.15 2.19,2.41 2.38,3.78 0.19,1.38 -0.17,2.62 -1.09,3.74 -1.03,1.25 -2.25,1.9 -3.67,1.95 -1.42,0.04 -2.97,-0.65 -4.65,-2.08 l 4.58,-5.58 c -0.67,-0.53 -1.33,-0.77 -1.98,-0.73 -0.65,0.04 -1.18,0.32 -1.6,0.83 -0.29,0.35 -0.43,0.72 -0.44,1.11 -0.01,0.41 0.15,0.84 0.47,1.3 z m 2.15,1.98 c 0.66,0.51 1.28,0.75 1.88,0.71 0.6,-0.04 1.08,-0.29 1.45,-0.74 0.4,-0.49 0.55,-1.03 0.46,-1.64 -0.09,-0.61 -0.45,-1.16 -1.06,-1.65 z"
   class="st1" />
		<path
   style="fill:#2f3787"
   id="path58"
   d="m 202.84,211.09 1.74,2.11 0.11,12.55 5.41,-4.45 1.62,1.96 -8.49,7 -1.5,-1.82 -0.09,-13.06 -6.6,5.44 -1.61,-1.96 z"
   class="st1" />
		<path
   style="fill:#2f3787"
   id="path60"
   d="m 186.2,223.35 0.87,1.38 c 0.02,-0.7 0.22,-1.37 0.59,-2 0.37,-0.63 0.85,-1.13 1.46,-1.52 0.62,-0.39 1.26,-0.61 1.92,-0.65 0.66,-0.04 1.26,0.12 1.79,0.47 0.53,0.35 1.07,0.96 1.62,1.83 l 3.68,5.82 -2.44,1.54 -2.67,-4.23 c -0.82,-1.29 -1.37,-2.06 -1.64,-2.29 -0.27,-0.23 -0.58,-0.36 -0.93,-0.38 -0.34,-0.02 -0.7,0.08 -1.06,0.31 -0.42,0.26 -0.72,0.61 -0.9,1.05 -0.19,0.44 -0.23,0.86 -0.14,1.28 0.09,0.41 0.56,1.28 1.39,2.6 l 2.46,3.88 -2.44,1.54 -5.82,-9.2 z"
   class="st1" />
		<path
   style="fill:#2f3787"
   id="path62"
   d="m 181.85,225.79 6.17,13.71 -2.63,1.18 -3.27,-7.28 -1.5,4.88 -3.24,1.45 1.76,-5.16 -6.47,-4.67 2.83,-1.27 4.5,3.34 0.65,-1.83 -1.43,-3.18 z"
   class="st1" />
		<path
   style="fill:#2f3787"
   id="path64"
   d="m 164.71,232.33 0.47,1.56 c 0.21,-0.67 0.58,-1.26 1.1,-1.76 0.52,-0.51 1.13,-0.86 1.82,-1.07 0.7,-0.21 1.38,-0.24 2.02,-0.1 0.65,0.14 1.18,0.45 1.6,0.94 0.42,0.49 0.77,1.21 1.06,2.2 l 1.97,6.6 -2.76,0.83 -1.43,-4.79 c -0.44,-1.47 -0.76,-2.35 -0.96,-2.65 -0.2,-0.3 -0.46,-0.51 -0.79,-0.62 -0.33,-0.11 -0.7,-0.11 -1.11,0.02 -0.47,0.14 -0.86,0.4 -1.15,0.77 -0.29,0.37 -0.46,0.77 -0.48,1.19 -0.02,0.42 0.19,1.38 0.63,2.88 l 1.32,4.4 -2.76,0.82 -3.12,-10.43 z"
   class="st1" />
		<path
   style="fill:#2f3787"
   id="path66"
   d="m 150.01,235.12 2.85,-0.44 0.84,5.49 c 0.18,1.16 0.35,1.9 0.53,2.23 0.17,0.32 0.41,0.56 0.71,0.71 0.3,0.15 0.65,0.19 1.03,0.13 0.49,-0.08 0.92,-0.28 1.27,-0.61 0.35,-0.33 0.56,-0.73 0.64,-1.2 0.08,-0.47 0.02,-1.3 -0.16,-2.51 l -0.75,-4.88 2.85,-0.44 1.65,10.76 -2.65,0.41 -0.24,-1.58 c -0.75,1.36 -1.84,2.15 -3.27,2.37 -0.63,0.1 -1.22,0.07 -1.78,-0.08 -0.56,-0.15 -0.99,-0.38 -1.31,-0.69 -0.32,-0.31 -0.57,-0.68 -0.74,-1.11 -0.17,-0.43 -0.32,-1.06 -0.45,-1.89 z"
   class="st1" />
		<path
   style="fill:#2f3787"
   id="path68"
   d="m 149.33,246.02 -1.6,0.07 0.04,0.82 c 0.04,0.91 -0.03,1.6 -0.2,2.06 -0.17,0.46 -0.52,0.84 -1.03,1.15 -0.51,0.31 -1.16,0.48 -1.96,0.52 -0.82,0.04 -1.63,-0.05 -2.42,-0.26 l 0.3,-2.03 c 0.46,0.09 0.91,0.12 1.33,0.1 0.42,-0.02 0.71,-0.13 0.88,-0.33 0.17,-0.2 0.25,-0.58 0.22,-1.13 l -0.04,-0.77 -2.15,0.1 -0.1,-2.26 2.15,-0.1 -0.39,-8.61 2.88,-0.13 0.39,8.61 1.6,-0.07 z"
   class="st1" />
		<path
   style="fill:#2f3787"
   id="path70"
   d="m 135.65,246.15 0.07,-2.3 1.97,0.06 0.13,-4.39 c 0.03,-0.89 0.02,-1.41 -0.01,-1.55 -0.03,-0.15 -0.12,-0.27 -0.25,-0.37 -0.13,-0.1 -0.29,-0.15 -0.48,-0.16 -0.27,-0.01 -0.66,0.07 -1.17,0.24 l -0.18,-2.24 c 0.68,-0.27 1.44,-0.39 2.29,-0.36 0.52,0.02 0.99,0.12 1.4,0.3 0.41,0.19 0.71,0.42 0.9,0.7 0.19,0.28 0.31,0.66 0.37,1.13 0.05,0.34 0.06,1.01 0.03,2.03 l -0.14,4.75 1.32,0.04 -0.07,2.3 -1.32,-0.04 -0.06,2.16 -2.94,1.6 0.11,-3.84 z"
   class="st1" />
		<path
   style="fill:#2f3787"
   id="path72"
   d="m 128.55,238.51 -0.47,2.84 -5.58,-0.93 0.47,-2.84 z"
   class="st1" />
		<path
   style="fill:#2f3787"
   id="path74"
   d="m 114.99,242.74 -1.53,-0.47 -0.24,0.78 c -0.27,0.88 -0.57,1.5 -0.89,1.87 -0.32,0.37 -0.77,0.62 -1.36,0.73 -0.58,0.12 -1.26,0.06 -2.02,-0.18 -0.78,-0.24 -1.51,-0.6 -2.19,-1.07 l 0.97,-1.8 c 0.41,0.24 0.81,0.42 1.21,0.55 0.4,0.12 0.71,0.12 0.94,-0.01 0.23,-0.13 0.43,-0.46 0.59,-0.99 l 0.23,-0.73 -2.06,-0.64 0.67,-2.16 2.06,0.64 2.55,-8.24 2.75,0.85 -2.55,8.24 1.53,0.47 z"
   class="st1" />
		<path
   style="fill:#2f3787"
   id="path76"
   d="m 100.34,239.51 -0.98,2.27 -2.28,-0.98 0.98,-2.27 z m 3.86,-12.29 -0.64,1.5 c 0.59,-0.38 1.25,-0.59 1.98,-0.64 0.73,-0.05 1.42,0.06 2.08,0.35 0.67,0.29 1.21,0.7 1.62,1.22 0.41,0.52 0.62,1.11 0.62,1.74 0.01,0.64 -0.19,1.43 -0.59,2.37 l -2.72,6.33 -2.65,-1.14 1.98,-4.6 c 0.61,-1.41 0.93,-2.29 0.97,-2.65 0.04,-0.36 -0.03,-0.69 -0.21,-0.98 -0.18,-0.3 -0.46,-0.53 -0.86,-0.7 -0.45,-0.19 -0.91,-0.25 -1.38,-0.15 -0.46,0.09 -0.84,0.3 -1.13,0.61 -0.29,0.31 -0.74,1.18 -1.36,2.61 l -1.82,4.22 -2.65,-1.14 4.3,-10 z m 0.19,14.03 -0.98,2.27 -2.27,-0.98 0.98,-2.27 z"
   class="st1" />
		<path
   style="fill:#2f3787"
   id="path78"
   d="m 97.18,223.57 2.5,1.43 -5.4,9.46 -2.32,-1.33 0.77,-1.34 c -0.76,0.41 -1.36,0.62 -1.79,0.64 -0.43,0.02 -0.85,-0.08 -1.26,-0.31 -0.57,-0.33 -1.03,-0.8 -1.38,-1.41 l 2.02,-1.74 c 0.27,0.51 0.58,0.87 0.94,1.08 0.35,0.2 0.7,0.27 1.06,0.22 0.35,-0.05 0.74,-0.29 1.17,-0.72 0.43,-0.42 1.1,-1.44 2.02,-3.05 z"
   class="st1" />
		<path
   style="fill:#2f3787"
   id="path80"
   d="m 82.89,213.4 -1.04,1.25 c 0.68,-0.19 1.37,-0.21 2.08,-0.06 0.71,0.16 1.34,0.46 1.89,0.92 0.56,0.47 0.96,1.01 1.21,1.63 0.24,0.62 0.28,1.23 0.1,1.85 -0.17,0.61 -0.59,1.31 -1.24,2.1 l -4.41,5.3 -2.21,-1.84 3.2,-3.85 c 0.98,-1.18 1.54,-1.93 1.68,-2.27 0.14,-0.33 0.17,-0.67 0.08,-1 -0.09,-0.33 -0.29,-0.64 -0.63,-0.92 -0.38,-0.31 -0.8,-0.49 -1.28,-0.53 -0.48,-0.04 -0.89,0.05 -1.26,0.26 -0.37,0.22 -1.05,0.92 -2.04,2.12 l -2.94,3.53 -2.21,-1.84 6.96,-8.37 z"
   class="st1" />
		<path
   style="fill:#2f3787"
   id="path82"
   d="m 72.44,202.7 1.94,2.13 -4.11,3.74 c -0.87,0.79 -1.39,1.35 -1.56,1.67 -0.17,0.32 -0.24,0.65 -0.19,0.98 0.05,0.33 0.2,0.64 0.46,0.93 0.34,0.37 0.74,0.61 1.21,0.72 0.47,0.11 0.92,0.07 1.35,-0.13 0.43,-0.19 1.1,-0.7 2,-1.52 l 3.65,-3.32 1.94,2.13 -8.05,7.33 -1.8,-1.98 1.18,-1.08 c -1.55,0.13 -2.81,-0.35 -3.78,-1.41 -0.43,-0.47 -0.73,-0.98 -0.92,-1.52 -0.18,-0.54 -0.24,-1.03 -0.16,-1.47 0.08,-0.44 0.25,-0.85 0.51,-1.23 0.26,-0.38 0.71,-0.86 1.33,-1.42 z"
   class="st1" />
		<path
   style="fill:#2f3787"
   id="path84"
   d="m 69.04,203.44 -2.01,-2.12 c 0.39,-0.42 0.6,-0.87 0.62,-1.34 0.02,-0.47 -0.16,-0.99 -0.54,-1.55 -0.43,-0.61 -0.86,-0.99 -1.3,-1.15 -0.3,-0.1 -0.58,-0.06 -0.85,0.13 -0.18,0.13 -0.29,0.28 -0.33,0.48 -0.03,0.2 0.05,0.53 0.24,1.01 0.91,2.2 1.36,3.68 1.37,4.43 0.01,1.04 -0.42,1.86 -1.28,2.46 -0.77,0.54 -1.64,0.68 -2.59,0.44 -0.95,-0.25 -1.88,-1.01 -2.77,-2.3 -0.85,-1.22 -1.28,-2.27 -1.3,-3.14 -0.01,-0.87 0.29,-1.69 0.92,-2.46 l 1.96,1.94 c -0.28,0.34 -0.42,0.7 -0.42,1.1 0,0.4 0.17,0.84 0.52,1.33 0.43,0.62 0.83,1.01 1.19,1.16 0.25,0.09 0.47,0.07 0.67,-0.06 0.17,-0.12 0.26,-0.29 0.27,-0.53 0.01,-0.32 -0.28,-1.21 -0.87,-2.67 -0.59,-1.46 -0.85,-2.58 -0.78,-3.37 0.08,-0.79 0.49,-1.44 1.24,-1.96 0.82,-0.57 1.76,-0.72 2.83,-0.44 1.07,0.28 2.06,1.08 3,2.43 0.85,1.22 1.27,2.35 1.27,3.41 0,1.06 -0.37,1.97 -1.06,2.77 z"
   class="st1" />
		<path
   style="fill:#2f3787"
   id="path86"
   d="m 58.78,187.63 -0.91,-2.77 c 1.1,-0.16 2.08,-0.02 2.94,0.43 0.86,0.45 1.56,1.2 2.12,2.26 0.88,1.68 0.99,3.21 0.31,4.59 -0.54,1.1 -1.48,2 -2.82,2.7 -1.6,0.84 -3.07,1.08 -4.41,0.72 -1.34,-0.36 -2.35,-1.18 -3.02,-2.45 -0.75,-1.43 -0.87,-2.81 -0.36,-4.14 0.51,-1.33 1.76,-2.49 3.73,-3.48 l 3.36,6.39 c 0.75,-0.42 1.23,-0.93 1.44,-1.54 0.21,-0.61 0.17,-1.22 -0.14,-1.8 -0.21,-0.4 -0.49,-0.68 -0.86,-0.84 -0.37,-0.16 -0.83,-0.19 -1.38,-0.07 z m -2.66,1.21 c -0.73,0.41 -1.19,0.89 -1.38,1.46 -0.2,0.56 -0.15,1.11 0.12,1.63 0.29,0.56 0.74,0.91 1.33,1.06 0.6,0.15 1.24,0.04 1.93,-0.33 z"
   class="st1" />
		<path
   style="fill:#2f3787"
   id="path88"
   d="m 58.76,179.03 1.06,2.68 -10.12,4.02 -0.99,-2.49 1.44,-0.57 c -0.85,-0.16 -1.45,-0.36 -1.8,-0.62 -0.35,-0.25 -0.61,-0.6 -0.78,-1.03 -0.24,-0.61 -0.31,-1.26 -0.19,-1.96 l 2.66,-0.1 c -0.11,0.57 -0.09,1.04 0.06,1.43 0.15,0.38 0.38,0.65 0.69,0.83 0.31,0.18 0.76,0.23 1.36,0.17 0.6,-0.06 1.76,-0.44 3.48,-1.12 z"
   class="st1" />
		<path
   style="fill:#2f3787"
   id="path90"
   d="m 51.95,169.26 -0.3,-2.9 c 1.11,0.07 2.04,0.42 2.79,1.04 0.74,0.62 1.28,1.51 1.6,2.66 0.51,1.82 0.28,3.34 -0.67,4.55 -0.76,0.96 -1.87,1.64 -3.33,2.04 -1.74,0.48 -3.23,0.41 -4.46,-0.23 -1.24,-0.64 -2.05,-1.65 -2.43,-3.04 -0.43,-1.56 -0.26,-2.94 0.52,-4.12 0.78,-1.19 2.24,-2.06 4.38,-2.61 l 1.93,6.96 c 0.82,-0.25 1.4,-0.65 1.74,-1.21 0.34,-0.56 0.42,-1.15 0.24,-1.79 -0.12,-0.44 -0.34,-0.77 -0.66,-1 -0.34,-0.22 -0.78,-0.34 -1.35,-0.35 z m -2.85,0.62 c -0.8,0.24 -1.35,0.62 -1.66,1.13 -0.31,0.51 -0.38,1.05 -0.23,1.62 0.17,0.61 0.53,1.05 1.08,1.32 0.55,0.27 1.2,0.3 1.96,0.08 z"
   class="st1" />
		<path
   style="fill:#2f3787"
   id="path92"
   d="m 53.08,158.37 -15.01,0.77 -0.23,-4.54 10.1,-3.25 -10.38,-2.17 -0.23,-4.55 15.01,-0.77 0.14,2.82 -11.82,0.6 11.97,2.38 0.15,2.92 -11.67,3.57 11.82,-0.6 z"
   class="st1" />
		<path
   style="fill:#2f3787"
   id="path94"
   d="m 49.86,134.89 0.78,-2.8 c 1.01,0.48 1.74,1.14 2.21,1.99 0.46,0.85 0.63,1.87 0.51,3.06 -0.2,1.88 -0.96,3.21 -2.29,3.98 -1.06,0.61 -2.34,0.83 -3.84,0.68 -1.8,-0.19 -3.15,-0.81 -4.07,-1.85 -0.92,-1.05 -1.3,-2.29 -1.15,-3.72 0.17,-1.61 0.84,-2.83 2,-3.65 1.16,-0.82 2.84,-1.09 5.03,-0.82 l -0.76,7.18 c 0.85,0.07 1.54,-0.09 2.06,-0.48 0.52,-0.39 0.81,-0.92 0.88,-1.58 0.05,-0.45 -0.04,-0.84 -0.25,-1.17 -0.22,-0.33 -0.59,-0.61 -1.11,-0.82 z m -2.88,-0.47 c -0.83,-0.07 -1.49,0.08 -1.96,0.44 -0.48,0.36 -0.74,0.84 -0.81,1.42 -0.07,0.63 0.11,1.17 0.52,1.62 0.41,0.45 1.01,0.72 1.79,0.8 z"
   class="st1" />
		<path
   style="fill:#2f3787"
   id="path96"
   d="m 52.03,123.54 1.12,-2.69 c 0.94,0.6 1.59,1.35 1.94,2.25 0.35,0.9 0.39,1.93 0.12,3.1 -0.43,1.84 -1.35,3.07 -2.77,3.67 -1.13,0.47 -2.43,0.54 -3.9,0.19 -1.76,-0.41 -3.03,-1.19 -3.8,-2.34 -0.78,-1.15 -1.01,-2.43 -0.68,-3.83 0.37,-1.58 1.18,-2.7 2.44,-3.37 1.25,-0.67 2.95,-0.73 5.09,-0.19 l -1.65,7.03 c 0.84,0.18 1.54,0.1 2.1,-0.22 0.56,-0.32 0.92,-0.81 1.07,-1.45 0.1,-0.44 0.07,-0.84 -0.1,-1.19 -0.15,-0.37 -0.48,-0.68 -0.98,-0.96 z m -2.8,-0.83 c -0.82,-0.17 -1.48,-0.1 -2,0.2 -0.52,0.3 -0.84,0.74 -0.98,1.31 -0.14,0.61 -0.04,1.17 0.31,1.67 0.35,0.5 0.91,0.84 1.68,1.01 z"
   class="st1" />
		<path
   style="fill:#2f3787"
   id="path98"
   d="m 57.64,117.03 -0.95,2.72 -10.28,-3.59 0.88,-2.53 1.46,0.51 c -0.54,-0.67 -0.86,-1.22 -0.96,-1.64 -0.1,-0.42 -0.07,-0.85 0.08,-1.29 0.21,-0.62 0.59,-1.16 1.14,-1.61 l 2.08,1.67 c -0.46,0.35 -0.75,0.73 -0.89,1.12 -0.13,0.38 -0.14,0.74 -0.02,1.08 0.12,0.34 0.42,0.68 0.92,1.02 0.5,0.34 1.62,0.82 3.37,1.43 z"
   class="st1" />
		<path
   style="fill:#2f3787"
   id="path100"
   d="m 58.87,105.19 1.66,-2.39 c 0.79,0.78 1.27,1.65 1.43,2.61 0.16,0.95 -0.02,1.97 -0.53,3.05 -0.81,1.71 -1.97,2.71 -3.48,3.01 -1.2,0.23 -2.49,0.02 -3.85,-0.63 -1.63,-0.77 -2.71,-1.8 -3.23,-3.09 -0.52,-1.29 -0.47,-2.59 0.14,-3.89 0.69,-1.46 1.72,-2.39 3.09,-2.78 1.37,-0.39 3.04,-0.09 5.02,0.89 l -3.09,6.53 c 0.78,0.35 1.48,0.42 2.1,0.22 0.62,-0.2 1.07,-0.6 1.35,-1.2 0.19,-0.41 0.24,-0.8 0.15,-1.19 -0.07,-0.38 -0.33,-0.76 -0.76,-1.14 z m -2.56,-1.39 c -0.76,-0.34 -1.43,-0.41 -2,-0.23 -0.57,0.19 -0.98,0.54 -1.23,1.08 -0.27,0.57 -0.28,1.14 -0.04,1.7 0.24,0.57 0.71,1.01 1.43,1.34 z"
   class="st1" />
		<path
   style="fill:#2f3787"
   id="path102"
   d="m 63.71,95.65 -2.37,-1.64 3.21,-4.66 2.37,1.64 z"
   class="st1" />
	</g>
</g>
<g
   transform="translate(-26.875,-31.875)"
   style="display:none"
   class="st2"
   id="Layer_2_copy_2">
	<circle
   style="display:inline;fill:#bbdbe7"
   id="circle107"
   r="135"
   cy="332"
   cx="273"
   class="st3" />
</g>
<g
   transform="translate(-26.875,-31.875)"
   id="Layer_1">
	<path
   style="fill:#4eaed9"
   id="path110"
   d="m 195.24,157.59 c -33.82,16.37 -76.54,-39.14 -109.32,-23.27 -30.06,14.55 -16.87,47.26 -16.87,47.26 19.37,40.02 67.52,56.76 107.54,37.38 40.02,-19.38 56.76,-67.52 37.38,-107.54 4.2,10.52 7.63,33.41 -18.73,46.17 z"
   class="st4" />
	<path
   style="fill:#2f3787"
   id="path112"
   d="m 85.91,134.32 c 32.78,-15.87 75.51,39.64 109.32,23.27 26.36,-12.76 22.94,-35.65 18.73,-46.17 C 194.59,71.4 146.44,54.66 106.42,74.04 66.4,93.42 49.66,141.56 69.04,181.58 c 0,0 -13.19,-32.71 16.87,-47.26 z"
   class="st1" />
	<g
   id="g132">
		<path
   style="fill:#ffffff"
   id="path114"
   d="M 87.19,121.25 V 104.3 h 11.62 v 2.87 h -8.2 v 4.01 h 7.08 v 2.87 h -7.08 v 7.2 z"
   class="st5" />
		<path
   style="fill:#ffffff"
   id="path116"
   d="m 104.72,121.25 h -3.25 v -12.28 h 3.02 v 1.75 c 0.52,-0.83 0.98,-1.37 1.39,-1.63 0.41,-0.26 0.88,-0.39 1.41,-0.39 0.74,0 1.45,0.2 2.14,0.61 l -1.01,2.83 c -0.55,-0.35 -1.06,-0.53 -1.53,-0.53 -0.46,0 -0.84,0.13 -1.16,0.38 -0.32,0.25 -0.56,0.7 -0.75,1.36 -0.19,0.66 -0.27,2.03 -0.27,4.12 v 3.78 z"
   class="st5" />
		<path
   style="fill:#ffffff"
   id="path118"
   d="m 110.83,107.3 v -3.01 h 3.25 v 3.01 z m 0,13.95 v -12.28 h 3.25 v 12.28 z"
   class="st5" />
		<path
   style="fill:#ffffff"
   id="path120"
   d="m 124.52,117.34 3.24,0.54 c -0.42,1.19 -1.07,2.09 -1.97,2.71 -0.9,0.62 -2.02,0.93 -3.37,0.93 -2.14,0 -3.72,-0.7 -4.74,-2.09 -0.81,-1.12 -1.21,-2.53 -1.21,-4.23 0,-2.04 0.53,-3.63 1.6,-4.78 1.07,-1.15 2.41,-1.73 4.04,-1.73 1.83,0 3.27,0.6 4.33,1.81 1.06,1.21 1.56,3.05 1.51,5.54 h -8.14 c 0.02,0.96 0.29,1.71 0.79,2.25 0.5,0.54 1.13,0.8 1.87,0.8 0.51,0 0.94,-0.14 1.28,-0.42 0.33,-0.26 0.59,-0.71 0.77,-1.33 z m 0.18,-3.28 c -0.02,-0.94 -0.27,-1.66 -0.73,-2.15 -0.46,-0.49 -1.03,-0.73 -1.69,-0.73 -0.71,0 -1.3,0.26 -1.76,0.77 -0.46,0.51 -0.69,1.22 -0.68,2.1 h 4.86 z"
   class="st5" />
		<path
   style="fill:#ffffff"
   id="path122"
   d="m 141.84,121.25 h -3.02 v -1.8 c -0.5,0.7 -1.09,1.22 -1.77,1.57 -0.68,0.34 -1.37,0.51 -2.06,0.51 -1.41,0 -2.62,-0.57 -3.63,-1.71 -1.01,-1.14 -1.51,-2.72 -1.51,-4.76 0,-2.08 0.49,-3.66 1.47,-4.75 0.98,-1.09 2.22,-1.63 3.71,-1.63 1.37,0 2.56,0.57 3.56,1.71 v -6.11 h 3.25 z m -8.67,-6.41 c 0,1.31 0.18,2.26 0.54,2.84 0.52,0.85 1.26,1.27 2.2,1.27 0.75,0 1.38,-0.32 1.91,-0.95 0.52,-0.64 0.79,-1.59 0.79,-2.85 0,-1.41 -0.25,-2.43 -0.76,-3.05 -0.51,-0.62 -1.16,-0.93 -1.95,-0.93 -0.77,0 -1.42,0.31 -1.94,0.92 -0.52,0.61 -0.79,1.54 -0.79,2.75 z"
   class="st5" />
		<path
   style="fill:#ffffff"
   id="path124"
   d="m 152.16,117.34 3.24,0.54 c -0.42,1.19 -1.07,2.09 -1.97,2.71 -0.9,0.62 -2.02,0.93 -3.37,0.93 -2.14,0 -3.72,-0.7 -4.74,-2.09 -0.81,-1.12 -1.21,-2.53 -1.21,-4.23 0,-2.04 0.53,-3.63 1.6,-4.78 1.07,-1.15 2.41,-1.73 4.04,-1.73 1.83,0 3.27,0.6 4.33,1.81 1.06,1.21 1.56,3.05 1.51,5.54 h -8.14 c 0.02,0.96 0.29,1.71 0.79,2.25 0.5,0.54 1.13,0.8 1.87,0.8 0.51,0 0.94,-0.14 1.28,-0.42 0.33,-0.26 0.59,-0.71 0.77,-1.33 z m 0.18,-3.28 c -0.02,-0.94 -0.27,-1.66 -0.73,-2.15 -0.46,-0.49 -1.03,-0.73 -1.69,-0.73 -0.71,0 -1.3,0.26 -1.76,0.77 -0.46,0.51 -0.69,1.22 -0.68,2.1 h 4.86 z"
   class="st5" />
		<path
   style="fill:#ffffff"
   id="path126"
   d="m 169.39,121.25 h -3.25 v -6.27 c 0,-1.33 -0.07,-2.18 -0.21,-2.57 -0.14,-0.39 -0.36,-0.69 -0.68,-0.91 -0.31,-0.22 -0.69,-0.32 -1.13,-0.32 -0.56,0 -1.07,0.15 -1.51,0.46 -0.45,0.31 -0.75,0.72 -0.92,1.23 -0.17,0.51 -0.25,1.45 -0.25,2.82 v 5.56 h -3.25 v -12.28 h 3.02 v 1.8 c 1.07,-1.39 2.42,-2.08 4.05,-2.08 0.72,0 1.37,0.13 1.97,0.39 0.59,0.26 1.04,0.59 1.35,0.99 0.3,0.4 0.52,0.86 0.64,1.36 0.12,0.5 0.18,1.24 0.18,2.19 v 7.63 z"
   class="st5" />
		<path
   style="fill:#ffffff"
   id="path128"
   d="m 175.11,112.72 -2.95,-0.53 c 0.33,-1.19 0.9,-2.07 1.71,-2.64 0.81,-0.57 2.01,-0.86 3.61,-0.86 1.45,0 2.53,0.17 3.24,0.51 0.71,0.34 1.21,0.78 1.5,1.31 0.29,0.53 0.43,1.5 0.43,2.91 l -0.03,3.79 c 0,1.08 0.05,1.88 0.16,2.39 0.11,0.51 0.3,1.06 0.58,1.65 h -3.21 c -0.08,-0.22 -0.19,-0.54 -0.31,-0.96 -0.05,-0.19 -0.09,-0.32 -0.12,-0.38 -0.56,0.54 -1.15,0.94 -1.78,1.21 -0.63,0.27 -1.31,0.4 -2.02,0.4 -1.26,0 -2.26,-0.34 -2.99,-1.03 -0.73,-0.69 -1.09,-1.55 -1.09,-2.6 0,-0.69 0.17,-1.31 0.5,-1.86 0.33,-0.55 0.8,-0.96 1.39,-1.25 0.6,-0.29 1.46,-0.54 2.58,-0.76 1.52,-0.29 2.57,-0.55 3.16,-0.8 v -0.32 c 0,-0.62 -0.15,-1.07 -0.46,-1.34 -0.31,-0.27 -0.89,-0.4 -1.75,-0.4 -0.58,0 -1.03,0.11 -1.35,0.34 -0.32,0.23 -0.6,0.65 -0.8,1.22 z m 4.35,2.63 c -0.42,0.14 -1.08,0.3 -1.98,0.5 -0.9,0.19 -1.49,0.38 -1.77,0.57 -0.42,0.3 -0.64,0.68 -0.64,1.15 0,0.46 0.17,0.85 0.51,1.18 0.34,0.33 0.77,0.5 1.29,0.5 0.59,0 1.15,-0.19 1.68,-0.58 0.39,-0.29 0.65,-0.65 0.77,-1.08 0.08,-0.28 0.13,-0.81 0.13,-1.58 v -0.66 z"
   class="st5" />
		<path
   style="fill:#ffffff"
   id="path130"
   d="m 193.94,121.25 v -1.84 c -0.45,0.66 -1.04,1.17 -1.76,1.55 -0.72,0.38 -1.5,0.57 -2.31,0.57 -0.82,0 -1.56,-0.18 -2.22,-0.54 -0.66,-0.36 -1.13,-0.87 -1.42,-1.53 -0.29,-0.66 -0.44,-1.56 -0.44,-2.72 v -7.77 h 3.25 v 5.64 c 0,1.73 0.06,2.79 0.18,3.17 0.12,0.38 0.34,0.7 0.65,0.93 0.32,0.23 0.72,0.34 1.2,0.34 0.55,0 1.05,-0.15 1.49,-0.46 0.44,-0.31 0.74,-0.68 0.9,-1.13 0.16,-0.45 0.24,-1.56 0.24,-3.31 v -5.18 h 3.25 v 12.28 z"
   class="st5" />
	</g>
	<g
   id="g156">
		<path
   style="fill:#ffffff"
   id="path134"
   d="m 90.03,173.97 h 3.03 v 1.8 c 0.39,-0.62 0.93,-1.12 1.6,-1.5 0.67,-0.39 1.41,-0.58 2.23,-0.58 1.43,0 2.64,0.56 3.63,1.68 0.99,1.12 1.49,2.68 1.49,4.67 0,2.05 -0.5,3.64 -1.5,4.78 -1,1.14 -2.22,1.71 -3.64,1.71 -0.68,0 -1.29,-0.13 -1.84,-0.4 -0.55,-0.27 -1.13,-0.73 -1.74,-1.39 v 6.19 h -3.25 v -16.96 z m 3.22,5.93 c 0,1.38 0.27,2.4 0.82,3.06 0.55,0.66 1.21,0.99 2,0.99 0.76,0 1.38,-0.3 1.88,-0.91 0.5,-0.6 0.75,-1.6 0.75,-2.98 0,-1.29 -0.26,-2.24 -0.77,-2.87 -0.52,-0.62 -1.16,-0.94 -1.92,-0.94 -0.79,0 -1.45,0.31 -1.98,0.92 -0.52,0.62 -0.78,1.53 -0.78,2.73 z"
   class="st5" />
		<path
   style="fill:#ffffff"
   id="path136"
   d="M 104.59,186.25 V 169.3 h 3.25 v 16.95 z"
   class="st5" />
		<path
   style="fill:#ffffff"
   id="path138"
   d="m 113.6,177.72 -2.95,-0.53 c 0.33,-1.19 0.9,-2.07 1.71,-2.64 0.81,-0.57 2.01,-0.86 3.61,-0.86 1.45,0 2.53,0.17 3.24,0.51 0.71,0.34 1.21,0.78 1.5,1.31 0.29,0.53 0.43,1.5 0.43,2.91 l -0.03,3.79 c 0,1.08 0.05,1.88 0.16,2.39 0.11,0.51 0.3,1.06 0.58,1.65 h -3.21 c -0.08,-0.22 -0.19,-0.54 -0.31,-0.96 -0.05,-0.19 -0.09,-0.32 -0.12,-0.38 -0.56,0.54 -1.15,0.94 -1.78,1.21 -0.63,0.27 -1.31,0.4 -2.02,0.4 -1.26,0 -2.26,-0.34 -2.99,-1.03 -0.73,-0.69 -1.09,-1.55 -1.09,-2.6 0,-0.69 0.17,-1.31 0.5,-1.86 0.33,-0.55 0.8,-0.96 1.39,-1.25 0.6,-0.29 1.46,-0.54 2.58,-0.76 1.52,-0.29 2.57,-0.55 3.16,-0.8 v -0.32 c 0,-0.62 -0.15,-1.07 -0.46,-1.34 -0.31,-0.27 -0.89,-0.4 -1.75,-0.4 -0.58,0 -1.03,0.11 -1.35,0.34 -0.32,0.23 -0.6,0.65 -0.8,1.22 z m 4.35,2.63 c -0.42,0.14 -1.08,0.3 -1.98,0.5 -0.9,0.19 -1.49,0.38 -1.77,0.57 -0.42,0.3 -0.64,0.68 -0.64,1.15 0,0.46 0.17,0.85 0.51,1.18 0.34,0.33 0.77,0.5 1.29,0.5 0.59,0 1.15,-0.19 1.68,-0.58 0.39,-0.29 0.65,-0.65 0.77,-1.08 0.08,-0.28 0.13,-0.81 0.13,-1.58 v -0.66 z"
   class="st5" />
		<path
   style="fill:#ffffff"
   id="path140"
   d="m 123.2,182.75 3.26,-0.5 c 0.14,0.63 0.42,1.11 0.84,1.44 0.42,0.33 1.02,0.49 1.78,0.49 0.84,0 1.47,-0.15 1.9,-0.46 0.28,-0.22 0.43,-0.5 0.43,-0.87 0,-0.25 -0.08,-0.45 -0.23,-0.61 -0.16,-0.15 -0.52,-0.3 -1.09,-0.43 -2.62,-0.58 -4.28,-1.11 -4.98,-1.58 -0.97,-0.66 -1.46,-1.58 -1.46,-2.76 0,-1.06 0.42,-1.96 1.26,-2.68 0.84,-0.72 2.14,-1.09 3.91,-1.09 1.68,0 2.93,0.27 3.75,0.82 0.82,0.55 1.38,1.36 1.69,2.43 l -3.06,0.57 c -0.13,-0.48 -0.38,-0.84 -0.75,-1.1 -0.37,-0.26 -0.89,-0.38 -1.57,-0.38 -0.86,0 -1.47,0.12 -1.84,0.36 -0.25,0.17 -0.37,0.39 -0.37,0.66 0,0.23 0.11,0.43 0.32,0.59 0.29,0.22 1.3,0.52 3.04,0.91 1.73,0.39 2.94,0.88 3.63,1.45 0.68,0.58 1.02,1.38 1.02,2.42 0,1.13 -0.47,2.09 -1.41,2.9 -0.94,0.81 -2.33,1.21 -4.17,1.21 -1.67,0 -3,-0.34 -3.97,-1.02 -0.99,-0.69 -1.63,-1.61 -1.93,-2.77 z"
   class="st5" />
		<path
   style="fill:#ffffff"
   id="path142"
   d="m 143.15,173.97 v 2.59 h -2.22 v 4.95 c 0,1 0.02,1.59 0.06,1.75 0.04,0.17 0.14,0.3 0.29,0.41 0.15,0.11 0.33,0.16 0.55,0.16 0.3,0 0.74,-0.1 1.31,-0.31 l 0.28,2.52 c -0.76,0.32 -1.61,0.49 -2.57,0.49 -0.59,0 -1.11,-0.1 -1.58,-0.29 -0.47,-0.2 -0.82,-0.45 -1.04,-0.76 -0.22,-0.31 -0.37,-0.73 -0.46,-1.27 -0.07,-0.38 -0.1,-1.14 -0.1,-2.29 v -5.35 h -1.49 v -2.59 h 1.49 v -2.44 l 3.26,-1.9 v 4.34 h 2.22 z"
   class="st5" />
		<path
   style="fill:#ffffff"
   id="path144"
   d="m 145.4,172.31 v -3.01 h 3.25 v 3.01 z m 0,13.94 v -12.28 h 3.25 v 12.28 z"
   class="st5" />
		<path
   style="fill:#ffffff"
   id="path146"
   d="M 151.87,186.25 V 169.3 h 3.25 v 9 l 3.8,-4.32 h 4 l -4.2,4.49 4.5,7.79 h -3.5 l -3.09,-5.52 -1.51,1.58 v 3.93 z"
   class="st5" />
		<path
   style="fill:#ffffff"
   id="path148"
   d="m 163.73,173.97 h 1.8 v -0.93 c 0,-1.03 0.11,-1.8 0.33,-2.31 0.22,-0.51 0.62,-0.92 1.21,-1.24 0.59,-0.32 1.34,-0.48 2.24,-0.48 0.93,0 1.83,0.14 2.72,0.42 l -0.44,2.27 c -0.52,-0.12 -1.01,-0.19 -1.49,-0.19 -0.47,0 -0.81,0.11 -1.01,0.33 -0.2,0.22 -0.31,0.64 -0.31,1.27 v 0.87 h 2.43 v 2.56 h -2.43 v 9.73 h -3.25 v -9.73 h -1.8 z"
   class="st5" />
		<path
   style="fill:#ffffff"
   id="path150"
   d="m 176.15,186.25 h -3.25 v -12.28 h 3.02 v 1.75 c 0.52,-0.83 0.98,-1.37 1.39,-1.63 0.41,-0.26 0.88,-0.39 1.41,-0.39 0.74,0 1.45,0.2 2.14,0.61 l -1.01,2.83 c -0.55,-0.35 -1.06,-0.53 -1.53,-0.53 -0.46,0 -0.84,0.13 -1.16,0.38 -0.32,0.25 -0.56,0.7 -0.75,1.36 -0.19,0.66 -0.27,2.03 -0.27,4.12 v 3.78 z"
   class="st5" />
		<path
   style="fill:#ffffff"
   id="path152"
   d="m 189.37,182.34 3.24,0.54 c -0.42,1.19 -1.07,2.09 -1.97,2.71 -0.9,0.62 -2.02,0.93 -3.37,0.93 -2.14,0 -3.72,-0.7 -4.74,-2.09 -0.81,-1.12 -1.21,-2.53 -1.21,-4.23 0,-2.04 0.53,-3.63 1.6,-4.78 1.07,-1.15 2.41,-1.73 4.04,-1.73 1.83,0 3.27,0.6 4.33,1.81 1.06,1.21 1.56,3.05 1.51,5.54 h -8.14 c 0.02,0.96 0.29,1.71 0.79,2.25 0.5,0.54 1.13,0.8 1.87,0.8 0.51,0 0.94,-0.14 1.28,-0.42 0.33,-0.26 0.59,-0.71 0.77,-1.33 z m 0.18,-3.28 c -0.02,-0.94 -0.27,-1.66 -0.73,-2.15 -0.46,-0.49 -1.03,-0.73 -1.69,-0.73 -0.71,0 -1.3,0.26 -1.76,0.77 -0.46,0.51 -0.69,1.22 -0.68,2.1 h 4.86 z"
   class="st5" />
		<path
   style="fill:#ffffff"
   id="path154"
   d="m 195.43,172.31 v -3.01 h 3.25 v 3.01 z m 0,13.94 v -12.28 h 3.25 v 12.28 z"
   class="st5" />
	</g>
</g>
</svg>